{
    "accessors" : [
        {
            "bufferView" : 0, 
            "componentType" : 5123, 
            "count" : 18252, 
            "max" : [
                6213
            ], 
            "min" : [
                0
            ], 
            "type" : "SCALAR"
        }, 
        {
            "bufferView" : 1, 
            "componentType" : 5126, 
            "count" : 6214, 
            "max" : [
                0.10530364513397217, 
                0.044638216495513916, 
                0.0004931092262268066
            ], 
            "min" : [
                -0.11772704124450684, 
                -0.04629814624786377, 
                -0.06016278266906738
            ], 
            "type" : "VEC3"
        }, 
        {
            "bufferView" : 2, 
            "componentType" : 5126, 
            "count" : 6214, 
            "max" : [
                0.9949339032173157, 
                0.9999237656593323, 
                0.9952086210250854
            ], 
            "min" : [
                -0.99981689453125, 
                -0.9999553561210632, 
                -0.9731131792068481
            ], 
            "type" : "VEC3"
        }, 
        {
            "bufferView" : 3, 
            "componentType" : 5126, 
            "count" : 6214, 
            "max" : [
                0.9985734224319458, 
                0.995822012424469, 
                0.9983488321304321, 
                1.0
            ], 
            "min" : [
                -0.9910335540771484, 
                -0.9989451766014099, 
                -0.9986241459846497, 
                -1.0
            ], 
            "type" : "VEC4"
        }, 
        {
            "bufferView" : 4, 
            "componentType" : 5126, 
            "count" : 6214, 
            "max" : [
                0.007608344312757254, 
                1.0
            ], 
            "min" : [
                0.0, 
                0.6982309818267822
            ], 
            "type" : "VEC2"
        }, 
        {
            "bufferView" : 5, 
            "componentType" : 5126, 
            "count" : 6214, 
            "max" : [
                0.875, 
                1.0
            ], 
            "min" : [
                0.0, 
                0.009433984756469727
            ], 
            "type" : "VEC2"
        }, 
        {
            "bufferView" : 6, 
            "componentType" : 5126, 
            "count" : 6214, 
            "max" : [
                0.9270833730697632, 
                1.0
            ], 
            "min" : [
                0.0, 
                1.0
            ], 
            "type" : "VEC2"
        }, 
        {
            "bufferView" : 7, 
            "componentType" : 5126, 
            "count" : 6214, 
            "max" : [
                0.0, 
                0.0, 
                0.0, 
                1.0
            ], 
            "min" : [
                0.0, 
                0.0, 
                0.0, 
                1.0
            ], 
            "type" : "VEC4"
        }
    ], 
    "asset" : {
        "generator" : "Khronos Blender glTF 2.0 exporter", 
        "version" : "2.0"
    }, 
    "bufferViews" : [
        {
            "buffer" : 0, 
            "byteLength" : 36504, 
            "byteOffset" : 0, 
            "target" : 34963
        }, 
        {
            "buffer" : 0, 
            "byteLength" : 74568, 
            "byteOffset" : 36504, 
            "target" : 34962
        }, 
        {
            "buffer" : 0, 
            "byteLength" : 74568, 
            "byteOffset" : 111072, 
            "target" : 34962
        }, 
        {
            "buffer" : 0, 
            "byteLength" : 99424, 
            "byteOffset" : 185640, 
            "target" : 34962
        }, 
        {
            "buffer" : 0, 
            "byteLength" : 49712, 
            "byteOffset" : 285064, 
            "target" : 34962
        }, 
        {
            "buffer" : 0, 
            "byteLength" : 49712, 
            "byteOffset" : 334776, 
            "target" : 34962
        }, 
        {
            "buffer" : 0, 
            "byteLength" : 49712, 
            "byteOffset" : 384488, 
            "target" : 34962
        }, 
        {
            "buffer" : 0, 
            "byteLength" : 99424, 
            "byteOffset" : 434200, 
            "target" : 34962
        }
    ], 
    "buffers" : [
        {
            "byteLength" : 533624, 
            "uri" : "jacksigbig.bin"
        }
    ], 
    "meshes" : [
        {
            "name" : "element", 
            "primitives" : [
                {
                    "attributes" : {
                        "COLOR_0" : 7, 
                        "NORMAL" : 2, 
                        "POSITION" : 1, 
                        "TANGENT" : 3, 
                        "TEXCOORD_0" : 4, 
                        "TEXCOORD_1" : 5, 
                        "TEXCOORD_2" : 6
                    }, 
                    "indices" : 0
                }
            ]
        }
    ], 
    "nodes" : [
        {
            "children" : [
                6
            ], 
            "name" : "BakedMesh", 
            "rotation" : [
                0.7071068286895752, 
                0.0, 
                -0.0, 
                0.7071067094802856
            ], 
            "translation" : [
                1.1714810132980347, 
                0.6073147058486938, 
                -0.5652382373809814
            ]
        }, 
        {
            "name" : "Camera", 
            "rotation" : [
                0.483536034822464, 
                0.33687159419059753, 
                -0.20870360732078552, 
                0.7804827094078064
            ], 
            "translation" : [
                7.481131553649902, 
                5.34366512298584, 
                6.5076398849487305
            ]
        }, 
        {
            "name" : "Lamp", 
            "rotation" : [
                0.16907575726509094, 
                0.7558802962303162, 
                -0.27217137813568115, 
                0.570947527885437
            ], 
            "scale" : [
                1.0, 
                1.0, 
                0.9999999403953552
            ], 
            "translation" : [
                4.076245307922363, 
                5.903861999511719, 
                -1.0054539442062378
            ]
        }, 
        {
            "name" : "Paint", 
            "rotation" : [
                0.0, 
                0.0, 
                -7.450580596923828e-09, 
                1.0
            ], 
            "translation" : [
                0.0, 
                -5.960464477539063e-08, 
                -0.0
            ]
        }, 
        {
            "mesh" : 0, 
            "name" : "Paint.001", 
            "rotation" : [
                0.0, 
                0.0, 
                -7.450580596923828e-09, 
                1.0
            ], 
            "scale" : [
                13.889238357543945, 
                13.889238357543945, 
                13.889238357543945
            ], 
            "translation" : [
                -1.1650543212890625, 
                0.5721160769462585, 
                0.6002446413040161
            ]
        }, 
        {
            "children" : [
                3
            ], 
            "name" : "Root", 
            "rotation" : [
                0.0, 
                0.0, 
                -7.450580596923828e-09, 
                1.0
            ], 
            "translation" : [
                0.0, 
                -5.960464477539063e-08, 
                -0.0
            ]
        }, 
        {
            "children" : [
                4
            ], 
            "name" : "Root.001", 
            "rotation" : [
                0.0, 
                0.0, 
                -7.450580596923828e-09, 
                1.0
            ], 
            "translation" : [
                0.0, 
                -5.960464477539063e-08, 
                -0.0
            ]
        }, 
        {
            "children" : [
                5
            ], 
            "name" : "SourceData", 
            "rotation" : [
                0.7071068286895752, 
                0.0, 
                -0.0, 
                0.7071067094802856
            ], 
            "translation" : [
                1.1714810132980347, 
                0.6073147058486938, 
                -0.5652382373809814
            ]
        }
    ], 
    "scene" : 0, 
    "scenes" : [
        {
            "name" : "Scene", 
            "nodes" : [
                0, 
                7, 
                2, 
                1
            ]
        }
    ]
}
